<?xml version="1.0"?><svg xmlns="http://www.w3.org/2000/svg" width="530" height="530"><rect x="0" y="0" width="100%" height="100%" fill="rgb(129, 236, 236)" /><circle cx="0" cy="0" r="88.333333333333" fill="#222" style="opacity:0.13266666666667;" /><circle cx="530" cy="0" r="88.333333333333" fill="#222" style="opacity:0.13266666666667;" /><circle cx="0" cy="530" r="88.333333333333" fill="#222" style="opacity:0.13266666666667;" /><circle cx="530" cy="530" r="88.333333333333" fill="#222" style="opacity:0.13266666666667;" /><circle cx="88.333333333333" cy="0" r="88.333333333333" fill="#ddd" style="opacity:0.072;" /><circle cx="88.333333333333" cy="530" r="88.333333333333" fill="#ddd" style="opacity:0.072;" /><circle cx="176.66666666667" cy="0" r="88.333333333333" fill="#ddd" style="opacity:0.054666666666667;" /><circle cx="176.66666666667" cy="530" r="88.333333333333" fill="#ddd" style="opacity:0.054666666666667;" /><circle cx="265" cy="0" r="88.333333333333" fill="#222" style="opacity:0.046;" /><circle cx="265" cy="530" r="88.333333333333" fill="#222" style="opacity:0.046;" /><circle cx="353.33333333333" cy="0" r="88.333333333333" fill="#ddd" style="opacity:0.124;" /><circle cx="353.33333333333" cy="530" r="88.333333333333" fill="#ddd" style="opacity:0.124;" /><circle cx="441.66666666667" cy="0" r="88.333333333333" fill="#222" style="opacity:0.080666666666667;" /><circle cx="441.66666666667" cy="530" r="88.333333333333" fill="#222" style="opacity:0.080666666666667;" /><circle cx="0" cy="88.333333333333" r="88.333333333333" fill="#222" style="opacity:0.080666666666667;" /><circle cx="530" cy="88.333333333333" r="88.333333333333" fill="#222" style="opacity:0.080666666666667;" /><circle cx="88.333333333333" cy="88.333333333333" r="88.333333333333" fill="#ddd" style="opacity:0.124;" /><circle cx="176.66666666667" cy="88.333333333333" r="88.333333333333" fill="#ddd" style="opacity:0.054666666666667;" /><circle cx="265" cy="88.333333333333" r="88.333333333333" fill="#222" style="opacity:0.063333333333333;" /><circle cx="353.33333333333" cy="88.333333333333" r="88.333333333333" fill="#ddd" style="opacity:0.124;" /><circle cx="441.66666666667" cy="88.333333333333" r="88.333333333333" fill="#ddd" style="opacity:0.124;" /><circle cx="0" cy="176.66666666667" r="88.333333333333" fill="#ddd" style="opacity:0.089333333333333;" /><circle cx="530" cy="176.66666666667" r="88.333333333333" fill="#ddd" style="opacity:0.089333333333333;" /><circle cx="88.333333333333" cy="176.66666666667" r="88.333333333333" fill="#222" style="opacity:0.028666666666667;" /><circle cx="176.66666666667" cy="176.66666666667" r="88.333333333333" fill="#222" style="opacity:0.098;" /><circle cx="265" cy="176.66666666667" r="88.333333333333" fill="#222" style="opacity:0.063333333333333;" /><circle cx="353.33333333333" cy="176.66666666667" r="88.333333333333" fill="#ddd" style="opacity:0.14133333333333;" /><circle cx="441.66666666667" cy="176.66666666667" r="88.333333333333" fill="#222" style="opacity:0.080666666666667;" /><circle cx="0" cy="265" r="88.333333333333" fill="#222" style="opacity:0.15;" /><circle cx="530" cy="265" r="88.333333333333" fill="#222" style="opacity:0.15;" /><circle cx="88.333333333333" cy="265" r="88.333333333333" fill="#ddd" style="opacity:0.089333333333333;" /><circle cx="176.66666666667" cy="265" r="88.333333333333" fill="#222" style="opacity:0.028666666666667;" /><circle cx="265" cy="265" r="88.333333333333" fill="#ddd" style="opacity:0.089333333333333;" /><circle cx="353.33333333333" cy="265" r="88.333333333333" fill="#222" style="opacity:0.15;" /><circle cx="441.66666666667" cy="265" r="88.333333333333" fill="#ddd" style="opacity:0.124;" /><circle cx="0" cy="353.33333333333" r="88.333333333333" fill="#222" style="opacity:0.098;" /><circle cx="530" cy="353.33333333333" r="88.333333333333" fill="#222" style="opacity:0.098;" /><circle cx="88.333333333333" cy="353.33333333333" r="88.333333333333" fill="#ddd" style="opacity:0.14133333333333;" /><circle cx="176.66666666667" cy="353.33333333333" r="88.333333333333" fill="#ddd" style="opacity:0.10666666666667;" /><circle cx="265" cy="353.33333333333" r="88.333333333333" fill="#222" style="opacity:0.15;" /><circle cx="353.33333333333" cy="353.33333333333" r="88.333333333333" fill="#ddd" style="opacity:0.072;" /><circle cx="441.66666666667" cy="353.33333333333" r="88.333333333333" fill="#222" style="opacity:0.13266666666667;" /><circle cx="0" cy="441.66666666667" r="88.333333333333" fill="#ddd" style="opacity:0.054666666666667;" /><circle cx="530" cy="441.66666666667" r="88.333333333333" fill="#ddd" style="opacity:0.054666666666667;" /><circle cx="88.333333333333" cy="441.66666666667" r="88.333333333333" fill="#ddd" style="opacity:0.054666666666667;" /><circle cx="176.66666666667" cy="441.66666666667" r="88.333333333333" fill="#222" style="opacity:0.13266666666667;" /><circle cx="265" cy="441.66666666667" r="88.333333333333" fill="#222" style="opacity:0.13266666666667;" /><circle cx="353.33333333333" cy="441.66666666667" r="88.333333333333" fill="#222" style="opacity:0.046;" /><circle cx="441.66666666667" cy="441.66666666667" r="88.333333333333" fill="#222" style="opacity:0.046;" /></svg>